<svg xmlns="http://www.w3.org/2000/svg" width="161.614" height="49.211" viewBox="0 0 161.614 49.211">
  <g id="Grupo_1" data-name="Grupo 1" transform="translate(-175.667 -452.058)">
    <path id="Caminho_7" data-name="Caminho 7" d="M369.628,483.481a96.663,96.663,0,0,1-.521-29.425,1.579,1.579,0,0,0-.419-1.248,2.189,2.189,0,0,0-1.562-.75,2.033,2.033,0,0,0-1.981,1.966,98.58,98.58,0,0,0-.861,12.845,6.849,6.849,0,0,0-3.64-.366,7.221,7.221,0,0,0-5.632,5.823,7.631,7.631,0,0,0,3.718,7.863,8.287,8.287,0,0,0,6.506.7c.166,1.207.356,2.424.564,3.622a1.627,1.627,0,0,0,1.676,1.445,2.18,2.18,0,0,0,2.151-2.476Zm-4.868-6.63a4.46,4.46,0,0,1-3.559.16,3.676,3.676,0,0,1-2.342-3.722,3.169,3.169,0,0,1,2.59-2.833,2.97,2.97,0,0,1,.512-.045,2.7,2.7,0,0,1,2.448,1.627C364.492,473.691,364.61,475.309,364.761,476.851Z" transform="translate(-135.65 0)"></path>
    <path id="Caminho_8" data-name="Caminho 8" d="M415.634,516.389a1.814,1.814,0,0,0,1.641.914l.579,0a8.77,8.77,0,0,0,1,2.2,9.594,9.594,0,0,0,8.281,4.445,11.592,11.592,0,0,0,1.579-.109,1.584,1.584,0,0,0,1.1-.742,2.178,2.178,0,0,0,.3-1.7,2.036,2.036,0,0,0-2.422-1.387,5.662,5.662,0,0,1-5.529-2.693l1.307,0c.308,0,.627.012.952.023,1.5.05,3.2.108,4.468-.829a4.035,4.035,0,0,0,1.673-3.445,6.251,6.251,0,0,0-2.655-4.807,6.6,6.6,0,0,0-8.666,1.446,7.655,7.655,0,0,0-1.644,3.629h-.323a1.781,1.781,0,0,0-1.637.9A2.217,2.217,0,0,0,415.634,516.389Zm10.935-3.109a.16.16,0,0,1-.11.065c-.107.014-.183.018-.18.018s-3.2-.005-4-.008l-.624,0a3.21,3.21,0,0,1,1.84-2h0a2.355,2.355,0,0,1,2.454.379C426.307,512.041,426.85,512.864,426.569,513.281Z" transform="translate(-181.4 -41.755)"></path>
    <path id="Caminho_9" data-name="Caminho 9" d="M777.769,516.956a2.2,2.2,0,0,0-1.591-1.415,1.659,1.659,0,0,0-1.59.64,7.36,7.36,0,0,1-3.661,2.646,5.188,5.188,0,0,1-1.322.2,7.236,7.236,0,0,1-.915-.041,5.931,5.931,0,0,1-4.015-2.69l2.737.009c2.083.008,4.388-.189,5.332-2.612a5.006,5.006,0,0,0-.786-4.97,6.467,6.467,0,0,0-5.732-2.487,7.1,7.1,0,0,0-6.08,6.081h-.358a1.8,1.8,0,0,0-1.637.9,2.218,2.218,0,0,0-.005,2.153,1.815,1.815,0,0,0,1.641.914l.579,0a9.551,9.551,0,0,0,7.14,6.5,9.8,9.8,0,0,0,1.88.184,10.457,10.457,0,0,0,8.019-4A2,2,0,0,0,777.769,516.956Zm-8.682-4.854c-.17.262-.784.248-1.326.236-.112,0-.223-.005-.33-.006l-3.27-.008a3.264,3.264,0,0,1,1.748-1.959,2.35,2.35,0,0,1,3.082,1.023C769.147,511.72,769.18,511.96,769.087,512.1Z" transform="translate(-440.615 -40.969)"></path>
    <path id="Caminho_10" data-name="Caminho 10" d="M483.437,516.769a1.867,1.867,0,0,0,1.935,1.918,1.935,1.935,0,0,0,2.029-1.915c.062-2.482.2-3.9.2-3.924a8.6,8.6,0,0,1,.3-2.177l.049-.206a3.461,3.461,0,0,1,.823-1.555l.024-.025a1.519,1.519,0,0,1,.961-.538,1.247,1.247,0,0,1,1.411.9,8.442,8.442,0,0,1,.458,2.282c.038.33.077.671.126.993s.085.574.117.79a14.735,14.735,0,0,0,.714,2.994,8.481,8.481,0,0,0,.893,1.833,1.974,1.974,0,0,0,1.867.89,1.882,1.882,0,0,0,1.535-1.068,1.645,1.645,0,0,0-.295-1.69,8.658,8.658,0,0,1-1.333-3.97c-.064-.4-.117-.812-.173-1.249-.293-2.283-.625-4.87-2.773-6.141a3.729,3.729,0,0,0-3.026-.423,6,6,0,0,0-3.364,2.918,32.183,32.183,0,0,0-2.1-5.049,1.721,1.721,0,0,0-1.474-1,2.217,2.217,0,0,0-1.889,1.018,1.9,1.9,0,0,0-.067,1.97A27.023,27.023,0,0,1,483.437,516.769Z" transform="translate(-230.436 -37.315)"></path>
    <path id="Caminho_11" data-name="Caminho 11" d="M660.512,496.969a2.038,2.038,0,0,0-1.386-2.423h0a2.159,2.159,0,0,0-1.683.295,1.605,1.605,0,0,0-.76,1.1c-.068.47-.136.951-.2,1.442a17.572,17.572,0,0,0-7.414,1.41,8.676,8.676,0,0,0-4.822,5.952,7.259,7.259,0,0,0,3.054,7.162,7.749,7.749,0,0,0,5.66,1.294c-2.34,5.569-5.909,8.776-10.9,9.8a12.2,12.2,0,0,1-9.774-2.137,1.619,1.619,0,0,0-1.3-.261,2.175,2.175,0,0,0-1.42.963,2.029,2.029,0,0,0,.7,2.705,15.2,15.2,0,0,0,9.144,2.925,17.653,17.653,0,0,0,10.794-3.727c4.227-3.294,7.065-8.6,8.676-16.233.574-2.72.967-5.515,1.347-8.218Q660.365,498,660.512,496.969Zm-4.6,4.383a70.073,70.073,0,0,1-1.455,7.361,1.356,1.356,0,0,1-.155.086,4.77,4.77,0,0,1-5.143-.46,3.142,3.142,0,0,1-.758-3.681C649.719,501.888,653.083,501.425,655.915,501.352Z" transform="translate(-343.302 -32.107)"></path>
    <path id="Caminho_12" data-name="Caminho 12" d="M621.98,515.868c2.856,1.953,6.28.947,8.657-.026l.06.306c.028.144.028.144.064.314l.056.266a1.685,1.685,0,0,0,1.725,1.434,2.211,2.211,0,0,0,.452-.048,2.035,2.035,0,0,0,1.649-2.426,19.071,19.071,0,0,1,2.3-14.047,1.933,1.933,0,0,0-.819-2.7,1.832,1.832,0,0,0-2.606.7,25.977,25.977,0,0,0-1.183,2.427,8.984,8.984,0,0,0-8.3-.783,8.361,8.361,0,0,0-5.127,6.119A8.094,8.094,0,0,0,621.98,515.868Zm.837-7.741a4.762,4.762,0,0,1,3.307-3.414,4.789,4.789,0,0,1,4.649,1.13,2.188,2.188,0,0,0,.237.192,26,26,0,0,0-.751,5.663l-.157.075c-1.7.818-4.04,1.938-5.807.876A4.114,4.114,0,0,1,622.817,508.127Z" transform="translate(-335.303 -35.275)"></path>
    <path id="Caminho_13" data-name="Caminho 13" d="M214.484,470.393a7.621,7.621,0,0,0-5.782-1.119,8.175,8.175,0,0,0-5.118,3.928,7.057,7.057,0,0,0-.853,5.549c-3.667,2.445-7,3.741-10.191,3.961a11.811,11.811,0,0,1-9.971-3.745,12.54,12.54,0,0,1-2.911-9.379,11.749,11.749,0,0,1,4.2-8.183,11.361,11.361,0,0,1,11.392-1.413,1.607,1.607,0,0,0,1.32-.079,2.208,2.208,0,0,0,1.132-1.3,2.04,2.04,0,0,0-1.37-2.435,15.127,15.127,0,0,0-20.25,10.653,17.332,17.332,0,0,0,2.283,13.11,15.173,15.173,0,0,0,11.493,6.7q.8.074,1.612.074c4.262,0,8.726-1.534,13.3-4.572a7.492,7.492,0,0,0,7.523,2.1,7.784,7.784,0,0,0,5.488-8.982A7.609,7.609,0,0,0,214.484,470.393Zm-3.255,10.036a3.826,3.826,0,0,1-4.531-2.3,3.542,3.542,0,0,1,.308-2.932,3.988,3.988,0,0,1,2.559-2.052,3.535,3.535,0,0,1,2.764.554,3.815,3.815,0,0,1,1.608,2.527A3.764,3.764,0,0,1,211.229,480.428Z" transform="translate(0 -2.305)"></path>
    <path id="Caminho_14" data-name="Caminho 14" d="M418.8,602.283a2.048,2.048,0,0,0-.578-1.4,1.482,1.482,0,0,0-.631-.41,1.514,1.514,0,0,0-.779-.174,1.991,1.991,0,0,0-1.4.584,2.055,2.055,0,0,0-.577,1.4v.223a2.048,2.048,0,0,0,.577,1.4,1.479,1.479,0,0,0,.631.409,1.518,1.518,0,0,0,.715.175h.063a1.989,1.989,0,0,0,1.4-.584,2.056,2.056,0,0,0,.577-1.4Z" transform="translate(-181.003 -112.19)"></path>
    <path id="Caminho_15" data-name="Caminho 15" d="M479.253,496.621a2.037,2.037,0,0,0-1.386-2.423,2.158,2.158,0,0,0-1.681.294,1.608,1.608,0,0,0-.761,1.1l-.211,1.442a17.556,17.556,0,0,0-7.407,1.41,8.675,8.675,0,0,0-4.822,5.952,7.259,7.259,0,0,0,3.054,7.162,7.742,7.742,0,0,0,5.627,1.3,33.126,33.126,0,0,1-3.013,6.146,21.846,21.846,0,0,1-7.628,7.557,21.258,21.258,0,0,1-10.757,2.6,23.346,23.346,0,0,1-12.3-3.786,1.788,1.788,0,0,0-2.568.589,1.977,1.977,0,0,0,.559,2.828,27.372,27.372,0,0,0,14.742,4.316,25.56,25.56,0,0,0,9.891-1.953c7-2.937,12.5-9.677,15.5-18.976a95.288,95.288,0,0,0,3.155-15.526Zm-4.651,4.385c-.481,2.91-.968,5.264-1.53,7.394a.923.923,0,0,1-.123.072,4.623,4.623,0,0,1-5.047-.481,3.142,3.142,0,0,1-.758-3.681C468.456,501.549,471.792,501.082,474.6,501.006Z" transform="translate(-196.295 -31.844)"></path>
  </g>
</svg>