<?xml version="1.0" encoding="utf-8"?>
<!-- Generator: Adobe Illustrator 27.0.0, SVG Export Plug-In . SVG Version: 6.00 Build 0)  -->
<svg version="1.1" id="Camada_1" xmlns="http://www.w3.org/2000/svg" xmlns:xlink="http://www.w3.org/1999/xlink" x="0px" y="0px"
	 viewBox="0 0 426 120.6" style="enable-background:new 0 0 426 120.6;" xml:space="preserve">
<g>
	<path class="st0" d="M141.3,50.9c-2.5-2.6-5.4-4.6-8.7-5.9c-3.2-1.3-6.6-2-10-2c-4.7,0-8.6,1-11.8,3.1c-3.2,2.1-5.8,4.7-7.9,7.8
		v-9.7H89.4v76h13.5l-0.1-26.7c2.1,2.7,4.7,5.1,7.8,7.2c3.2,2.1,7.1,3.1,11.9,3.1c3.5,0,6.8-0.7,10.1-2c3.3-1.3,6.2-3.3,8.7-5.9
		c2.5-2.6,4.6-5.8,6.1-9.6c1.5-3.8,2.3-8.1,2.3-12.9c0-4.9-0.8-9.2-2.3-12.9C145.9,56.7,143.8,53.6,141.3,50.9z M134.9,81.2
		c-0.9,2.3-2.1,4.3-3.6,5.9c-1.5,1.6-3.3,2.9-5.3,3.8c-2,0.9-4.2,1.3-6.5,1.3c-2.3,0-4.5-0.4-6.5-1.3c-2.1-0.9-3.9-2.2-5.4-3.8
		c-1.5-1.7-2.8-3.6-3.7-5.9c-0.9-2.3-1.4-4.9-1.4-7.7s0.5-5.5,1.4-7.7c0.9-2.3,2.2-4.3,3.7-5.9c1.5-1.7,3.4-2.9,5.4-3.8
		c2.1-0.9,4.2-1.3,6.5-1.3c2.3,0,4.4,0.4,6.5,1.3c2,0.9,3.8,2.1,5.3,3.8c1.5,1.6,2.7,3.6,3.6,5.9c0.9,2.3,1.3,4.9,1.3,7.8
		S135.8,78.9,134.9,81.2z"/>
	<path class="st0" d="M180.5,46.8c-3.4,2.7-6,6.2-7.8,10.6V44.3h-13.5v58.4h13.5V80.4c0-3.8,0.5-7.2,1.4-10.1c1-2.9,2.3-5.3,4.1-7.2
		c1.8-1.9,3.9-3.4,6.3-4.3c2.4-1,5.1-1.4,8.1-1.4h0.8V43.1C188.2,42.9,183.9,44.1,180.5,46.8z"/>
	<path class="st0" d="M249.7,51.9c-2.8-2.8-6-4.9-9.8-6.5c-3.8-1.6-7.9-2.4-12.4-2.4c-4.5,0-8.6,0.8-12.4,2.4
		c-3.8,1.6-7.1,3.8-9.8,6.6c-2.8,2.8-4.9,6-6.5,9.7c-1.6,3.7-2.4,7.7-2.4,11.9c0,4.2,0.8,8.1,2.3,11.8s3.7,6.9,6.5,9.6
		c2.8,2.8,6,4.9,9.8,6.5c3.8,1.6,7.9,2.4,12.3,2.4c4.5,0,8.7-0.8,12.5-2.4c3.8-1.6,7.1-3.8,9.9-6.6c2.8-2.8,4.9-6,6.5-9.7
		c1.6-3.7,2.4-7.6,2.4-11.8c0-4.2-0.8-8.1-2.3-11.8C254.7,57.9,252.5,54.7,249.7,51.9z M243.8,80.9c-0.8,2.2-2,4.2-3.5,5.9
		c-1.5,1.7-3.4,3-5.5,4c-2.2,1-4.6,1.5-7.3,1.5c-2.6,0-4.9-0.5-7.1-1.5s-4-2.3-5.6-4c-1.6-1.7-2.8-3.7-3.7-6
		c-0.9-2.3-1.3-4.8-1.3-7.3c0-2.6,0.4-5,1.2-7.2c0.8-2.2,2-4.2,3.5-5.9c1.5-1.7,3.4-3,5.5-4c2.2-1,4.6-1.5,7.2-1.5
		c2.6,0,5,0.5,7.2,1.5c2.2,1,4,2.4,5.6,4.1c1.6,1.7,2.8,3.7,3.7,6c0.9,2.3,1.3,4.7,1.3,7.3C245,76.2,244.6,78.6,243.8,80.9z"/>
	<path class="st0" d="M303.9,90.3c-2.4,1.4-5.2,2-8.3,2c-2.6,0-4.9-0.5-7.1-1.5c-2.1-1-4-2.3-5.5-4c-1.5-1.7-2.7-3.7-3.6-6
		c-0.8-2.3-1.3-4.8-1.3-7.4c0-2.6,0.4-5,1.3-7.2c0.8-2.2,2-4.2,3.5-5.9c1.5-1.7,3.2-3,5.3-4c2.1-1,4.3-1.5,6.7-1.5
		c3.4,0,6.2,0.7,8.6,2c2.3,1.4,4.5,3.1,6.6,5.2l8.3-9c-2.7-3-5.9-5.5-9.6-7.3C305.1,44,300.6,43,295,43c-4.3,0-8.4,0.8-12.1,2.4
		c-3.7,1.6-6.9,3.8-9.7,6.6c-2.7,2.8-4.8,6-6.4,9.7c-1.5,3.7-2.3,7.6-2.3,11.8c0,4.2,0.8,8.1,2.3,11.8c1.5,3.6,3.6,6.9,6.4,9.6
		c2.7,2.8,5.9,4.9,9.6,6.5c3.7,1.6,7.7,2.4,12,2.4c5.7,0,10.4-1,14-3c3.7-2,7-4.7,9.8-7.9l-8.1-8C308.6,87.2,306.3,88.9,303.9,90.3z
		"/>
	<path class="st0" d="M349.6,21.3c-5.8,0-10.2,1.6-13.3,4.7c-3.1,3.1-4.7,7.9-4.7,14.4v4.2h-7.4v11.2h7.4v46.9h13.5V55.7h15.3V44.7
		h-15.5v-3.2c0-5.9,2.6-8.8,7.7-8.8c1.5,0,2.8,0.1,4,0.4c1.2,0.3,2.5,0.6,3.8,1V22.8c-1.5-0.4-3.1-0.8-4.8-1.1
		C354,21.4,351.9,21.3,349.6,21.3z"/>
	<path class="st0" d="M412.1,44.3l-15.1,43.3l-16.6-43.3h-14.3l24.3,58.3c-1.1,2.6-2.3,4.3-3.5,5.3c-1.3,1-2.8,1.4-4.8,1.4
		c-1.4,0-2.7-0.2-4-0.6c-1.3-0.4-2.6-0.9-3.8-1.6l-4.5,10c2.1,1.1,4.2,2,6.4,2.6c2.2,0.6,4.7,0.9,7.5,0.9c2.4,0,4.5-0.3,6.3-0.9
		c1.8-0.6,3.5-1.5,5.1-2.8c1.5-1.3,2.9-3,4.2-5c1.3-2.1,2.5-4.6,3.6-7.6l23.2-60H412.1z"/>
	<path class="st0" d="M52.4,59.1c-5.2,3.1-10.3,6.3-14.9,10.2c-6.2,5.3-10.6,11.6-12.2,19.6c-1,4.9-0.9,9.7-0.3,14.5h16
		c0-0.2,0-0.3-0.1-0.6c-1.4-6.6,0-12.8,3.9-18.4c3.4-4.9,7.9-8.5,12.9-11.7c5.8-3.7,12.1-6.3,18.6-8.7V45c-2.7,1.7-5.3,3.3-8,4.9
		C63.1,53,57.7,56,52.4,59.1z"/>
	<path class="st0" d="M83.4,0c-0.9,2.3-1.6,4.6-2.5,6.7c-2.8,6.5-7.2,11.9-12.6,16.6c-6,5.3-12.8,9.4-19.6,13.5
		c-6,3.6-12.3,6.9-18.2,10.7C24.1,51.6,18,56,12.8,61.4C5.7,68.9,1.6,77.6,0.2,87.6C0.2,88.1,0,91.4,0,91.9c0,3.4,0.6,8.7,1.2,11.5
		h13.6c-2-6.7-1.1-14.3-0.4-17.3c1.4-6,4.6-11.1,8.8-15.6c5.8-6.1,12.8-10.9,20.1-15.2C49.2,51.9,55,48.4,60.9,45
		c5.8-3.3,11.3-6.9,16.3-11.3c4.6-4.1,8.3-8.8,9.6-14.9c0.6-3,0.8-6,0-9C86,6.5,85.2,3.2,83.4,0z"/>
</g>
</svg>
